<svg width="20" height="20" viewBox="0 0 20 20" fill="none" xmlns="http://www.w3.org/2000/svg">
<path d="M9.99967 18.3327C8.06912 17.8466 6.47537 16.7389 5.21842 15.0098C3.96148 13.2806 3.33301 11.3605 3.33301 9.24935V4.16602L9.99967 1.66602L16.6663 4.16602V9.62435C16.6663 9.74935 16.6594 9.88129 16.6455 10.0202H14.958C14.9719 9.88129 14.9823 9.74935 14.9893 9.62435C14.9962 9.49935 14.9997 9.37435 14.9997 9.24935V5.31185L9.99967 3.43685L4.99967 5.31185V9.24935C4.99967 10.9299 5.4719 12.4577 6.41634 13.8327C7.36079 15.2077 8.55523 16.1243 9.99967 16.5827V18.3327ZM14.1663 18.3327V15.8327H11.6663V14.166H14.1663V11.666H15.833V14.166H18.333V15.8327H15.833V18.3327H14.1663ZM8.74967 12.4993H11.2497L10.7705 9.81185C11.0483 9.67296 11.267 9.47157 11.4268 9.20768C11.5865 8.94379 11.6663 8.65213 11.6663 8.33268C11.6663 7.87435 11.5031 7.48199 11.1768 7.1556C10.8504 6.82921 10.458 6.66602 9.99967 6.66602C9.54134 6.66602 9.14898 6.82921 8.82259 7.1556C8.4962 7.48199 8.33301 7.87435 8.33301 8.33268C8.33301 8.65213 8.41287 8.94379 8.57259 9.20768C8.73231 9.47157 8.95106 9.67296 9.22884 9.81185L8.74967 12.4993Z" fill="#F1F1F1"/>
</svg>
