<svg viewBox="-0.94 -0.94 30 30" fill="none" xmlns="http://www.w3.org/2000/svg" id="Privacy-Policy--Streamline-Iconoir" height="30" width="30">
  <desc>
    Privacy Policy Streamline Icon: https://streamlinehq.com
  </desc>
  <path d="M22.02510716666667 13.447569833333333V5.7909625c0 -0.19496533333333332 -0.07733 -0.3818461666666667 -0.215118 -0.5196341666666666l-3.8564236666666663 -3.8563065c-0.137788 -0.137788 -0.32466883333333335 -0.21523516666666667 -0.519517 -0.21523516666666667H3.1635c-0.4058653333333333 0 -0.7348693333333333 0.32900399999999996 -0.7348693333333333 0.7348693333333333v23.025944833333334c0 0.4058653333333333 0.32900399999999996 0.7348693333333333 0.7348693333333333 0.7348693333333333h10.288170666666666" stroke="#f1f1f1" stroke-linecap="round" stroke-linejoin="round" stroke-width="1.88"></path>
  <path d="M7.3277205 10.998083499999998h9.798296833333334M7.3277205 6.0988765h4.899207M7.3277205 15.897173333333333h3.6743466666666666" stroke="#f1f1f1" stroke-linecap="round" stroke-linejoin="round" stroke-width="1.88"></path>
  <path d="M17.126017333333333 1.1997866666666666v4.1642205c0 0.4058653333333333 0.32900399999999996 0.7348693333333333 0.7348693333333333 0.7348693333333333h4.1642205" stroke="#f1f1f1" stroke-linecap="round" stroke-linejoin="round" stroke-width="1.88"></path>
  <path d="m22.015733833333332 17.275053333333332 3.1297559999999995 0.7948586666666666c0.32584050000000003 0.08283683333333333 0.5556043333333334 0.3787998333333333 0.545528 0.7148338333333333 -0.21031416666666666 7.052613166666667 -4.278223666666666 8.1354675 -4.278223666666666 8.1354675s-4.0680266666666665 -1.0828543333333334 -4.278340833333333 -8.1354675c-0.009959166666666667 -0.33591683333333333 0.21980466666666665 -0.6319969999999999 0.545528 -0.7148338333333333l3.1298731666666666 -0.7948586666666666c0.39567183333333333 -0.10041183333333333 0.8100903333333334 -0.10041183333333333 1.205879333333333 0Z" stroke="#f1f1f1" stroke-linecap="round" stroke-linejoin="round" stroke-width="1.88"></path>
</svg>